<?xml version="1.0" encoding="utf-8"?>
<!-- Generator: Adobe Illustrator 25.4.1, SVG Export Plug-In . SVG Version: 6.00 Build 0)  -->
<svg version="1.1" id="Capa_1" xmlns="http://www.w3.org/2000/svg" xmlns:xlink="http://www.w3.org/1999/xlink" x="0px" y="0px"
	 viewBox="0 0 291.9 291.9" style="enable-background:new 0 0 291.9 291.9;" xml:space="preserve">
<style type="text/css">
	.st0{fill:#E9E1D3;}
	.st1{fill:#C92D1F;}
</style>
<circle class="st0" cx="145.9" cy="145.9" r="145.9"/>
<g>
	<path class="st1" d="M176.5,67.5v67.7l-26.1-13.7l-21.3,11.8V27.7L45.4,80.4v150.8h117.4v-11H97.9v-57l52.7-29.2l26,13.6v83.7h39.7
		v-75.3l-28.7-15V86.3l48,27.1v112.3h11V107L176.5,67.5z M86.9,156.7v63.5H56.4V86.5l61.7-38.9v91.7L86.9,156.7z M205.2,162.5v57.7
		h-17.7v-66.9L205.2,162.5z"/>
	<rect x="144.6" y="153.4" class="st1" width="5" height="5"/>
	<rect x="152.6" y="153.4" class="st1" width="5" height="5"/>
	<rect x="144.6" y="160.6" class="st1" width="5" height="5"/>
	<rect x="152.6" y="160.6" class="st1" width="5" height="5"/>
</g>
</svg>
