<?xml version="1.0" encoding="utf-8"?>
<!-- Generator: Adobe Illustrator 25.4.1, SVG Export Plug-In . SVG Version: 6.00 Build 0)  -->
<svg version="1.1" id="Capa_1" xmlns="http://www.w3.org/2000/svg" xmlns:xlink="http://www.w3.org/1999/xlink" x="0px" y="0px"
	 viewBox="0 0 291.89 291.89" style="enable-background:new 0 0 291.89 291.89;" xml:space="preserve">
<style type="text/css">
	.st0{fill:#C92D1F;}
	.st1{fill:#FFFFFF;}
</style>
<circle class="st0" cx="145.95" cy="145.95" r="145.95"/>
<g>
	<path class="st1" d="M176.53,67.46v67.65l-26.12-13.68l-21.33,11.85V27.71L45.37,80.44V231.2h117.42v-11h-64.9v-57.03l52.67-29.25
		l25.97,13.6v83.67h39.69v-75.3l-28.69-15.03V86.31l47.99,27.11V225.7h11V107L176.53,67.46z M86.89,156.7v63.5H56.37V86.52
		l61.71-38.87v91.74L86.89,156.7z M205.23,162.55v57.65h-17.69v-66.91L205.23,162.55z"/>
	<rect x="144.65" y="153.45" class="st1" width="5" height="5"/>
	<rect x="152.65" y="153.45" class="st1" width="5" height="5"/>
	<rect x="144.65" y="160.6" class="st1" width="5" height="5"/>
	<rect x="152.65" y="160.6" class="st1" width="5" height="5"/>
</g>
</svg>
